<svg xmlns="http://www.w3.org/2000/svg" viewBox="0 0 101.42 111.28"><defs><style>.cls-1{fill:#d02832;}.cls-2{fill:#e9e9ea;}.cls-3{fill:none;}.cls-4{fill:#c1e1db;opacity:0.2;isolation:isolate;}.cls-5{fill:#dceaf2;}</style></defs><g id="Layer_2" data-name="Layer 2"><g id="Layer_1-2" data-name="Layer 1"><g id="Layer_2-2" data-name="Layer 2"><g id="Layer_1-2-2" data-name="Layer 1-2"><rect class="cls-1" x="4.93" y="41.65" width="91.01" height="69.63"/><path class="cls-2" d="M51.14,48.67s17.27-49.42,31-37.5C98.2,25.22,51.14,48.67,51.14,48.67Z"/><path class="cls-2" d="M50.1,49.88S68.51,16.47,75.42,23.63C79.66,28,50.1,49.88,50.1,49.88Z"/><path class="cls-2" d="M50.94,48.11S41.19-3.32,59,.17C80,4.28,50.94,48.11,50.94,48.11Z"/><path class="cls-2" d="M50.66,49.68s-1.65-38,6.15-35C61.59,16.49,50.66,49.68,50.66,49.68Z"/><path class="cls-2" d="M50.5,47.73S16.34,8.07,33.51,2.18C53.73-4.74,50.5,47.73,50.5,47.73Z"/><path class="cls-2" d="M51,49.24S31.31,16.59,41,14.18C46.87,12.71,51,49.24,51,49.24Z"/><path class="cls-2" d="M49.92,47.63S.51,30.36,12.44,16.68C26.48.57,49.92,47.63,49.92,47.63Z"/><path class="cls-2" d="M51.14,48.66S17.73,30.26,24.89,23.34C29.27,19.11,51.14,48.66,51.14,48.66Z"/><polygon class="cls-3" points="43.86 93.99 26.57 111.28 42.37 111.28 43.86 109.79 43.86 93.99"/><polygon class="cls-3" points="4.93 41.65 4.93 62.56 25.84 41.65 4.93 41.65"/><polygon class="cls-3" points="43.86 41.65 38.76 41.65 4.93 75.48 4.93 91.27 43.86 52.34 43.86 41.65"/><polygon class="cls-3" points="56.68 68.24 83.27 41.65 67.48 41.65 56.68 52.45 56.68 68.24"/><polygon class="cls-3" points="56.68 96.97 95.94 57.71 95.94 41.91 56.68 81.17 56.68 96.97"/><polygon class="cls-3" points="43.86 65.27 4.93 104.2 4.93 111.28 13.64 111.28 43.86 81.06 43.86 65.27"/><polygon class="cls-3" points="95.94 72.06 56.72 111.28 72.51 111.28 95.94 87.85 95.94 72.06"/><polygon class="cls-3" points="85.44 111.28 95.94 111.28 95.94 100.78 85.44 111.28"/><polygon class="cls-4" points="95.94 87.85 72.51 111.28 85.44 111.28 95.94 100.78 95.94 87.85"/><polygon class="cls-4" points="42.37 111.28 43.86 111.28 43.86 109.79 42.37 111.28"/><polygon class="cls-4" points="95.94 57.71 56.68 96.97 56.68 111.28 56.72 111.28 95.94 72.06 95.94 57.71"/><polygon class="cls-4" points="43.86 81.06 13.64 111.28 26.57 111.28 43.86 93.99 43.86 81.06"/><polygon class="cls-4" points="56.68 81.17 95.94 41.91 95.94 41.65 83.27 41.65 56.68 68.24 56.68 81.17"/><polygon class="cls-4" points="67.48 41.65 56.68 41.65 56.68 52.45 67.48 41.65"/><polygon class="cls-4" points="43.86 52.34 4.93 91.27 4.93 104.2 43.86 65.27 43.86 52.34"/><polygon class="cls-4" points="25.84 41.65 4.93 62.56 4.93 75.48 38.76 41.65 25.84 41.65"/><rect class="cls-1" y="35.62" width="101.42" height="24.12"/><polygon class="cls-5" points="43.86 34.25 43.86 41.65 43.86 52.34 43.86 65.27 43.86 81.06 43.86 93.99 43.86 109.79 43.86 111.28 56.68 111.28 56.68 96.97 56.68 81.17 56.68 68.24 56.68 52.45 56.68 41.65 56.68 34.25 43.86 34.25"/></g></g></g></g></svg>