<svg xmlns="http://www.w3.org/2000/svg" viewBox="0 0 136.5 141.03"><defs><style>.cls-1{fill:#d02832;}.cls-2{fill:#fff;}.cls-3{fill:#c13534;}.cls-4{fill:#e9e9ea;}</style></defs><g id="Layer_2" data-name="Layer 2"><g id="Layer_1-2" data-name="Layer 1"><g id="Geschenk_3" data-name="Geschenk 3"><rect class="cls-1" x="1.3" y="1.09" width="134.42" height="139.6" transform="translate(-0.36 0.35) rotate(-0.29)"/><rect class="cls-2" x="54.02" width="27.64" height="141"/><rect class="cls-2" x="63.02" width="9.27" height="141"/><rect class="cls-2" y="56.9" width="136.5" height="27.64"/><path class="cls-2" d="M24.41,37.75h0a5.45,5.45,0,0,1,.75-.1h0s1.6-.26,8.53.58c4.66.48,11.4,1.39,20.93,3.07,6.63,1.12,12.49,2.37,17.15,3.45,0,0-9.63-20.52-30.86-28.78-1.11-.41-2.12-.76-3-1.05h0c-.82-.26-1.56-.52-2.26-.78L35.18,14c-6.78-2.06-7,5.22-11.19,22.37A8.07,8.07,0,0,0,23.77,38a4,4,0,0,1,.64-.2Z"/><path class="cls-3" d="M71.81,44.79v0S71.79,44.81,71.81,44.79Z"/><path class="cls-2" d="M29.2,69.44a51.42,51.42,0,0,0,5.38.38c.55,0,30.36-2.69,36.68-21.66a21,21,0,0,1,.86-3.43C67.45,43.66,61.6,42.42,55,41.29,45.44,39.61,38.69,38.7,34,38.22c-6.93-.84-8.53-.58-8.53-.58h0a5.9,5.9,0,0,0-.75.1h0a3.76,3.76,0,0,0-3,2.94c-.07.32-.12.67-.17,1.05-.36,3.61-.76,7.68-1.11,11.31l-1.08,10.7c0,.14,0,.31-.05.52a3.34,3.34,0,0,0,.9,2.44c1.78,2.1,9,2.73,9,2.73Z"/><path class="cls-2" d="M119.5,37.75h0a5.45,5.45,0,0,0-.75-.1h0s-1.6-.26-8.52.58c-4.67.48-11.41,1.39-20.94,3.07-6.63,1.13-12.49,2.37-17.15,3.45,0,0,9.63-20.52,30.86-28.78,1.11-.41,2.12-.76,3-1.05h0c.82-.26,1.57-.52,2.26-.78l.55-.19c6.77-2.06,7,5.22,11.18,22.37a8.93,8.93,0,0,1,.23,1.64,4.12,4.12,0,0,0-.65-.2Z"/><path class="cls-3" d="M72.11,44.79s0,0,0,0S72.12,44.81,72.11,44.79Z"/><path class="cls-2" d="M114.71,69.44a51.42,51.42,0,0,1-5.38.38c-.55,0-30.36-2.69-36.68-21.66a22,22,0,0,0-.85-3.43c4.66-1.07,10.52-2.31,17.14-3.44,9.54-1.69,16.28-2.59,20.94-3.07,6.93-.84,8.53-.58,8.53-.58h0a5.45,5.45,0,0,1,.75.1h0a3.74,3.74,0,0,1,3,2.94c.07.32.12.67.17,1.05.36,3.61.76,7.68,1.12,11.31l1.07,10.7a3.39,3.39,0,0,1,0,.52,3.3,3.3,0,0,1-.9,2.44c-1.78,2.1-9,2.73-9,2.73Z"/><path class="cls-4" d="M29.2,64.94c1.52.16,3.32.29,5.38.32.55,0,30.36-2.3,36.68-18.59a15.74,15.74,0,0,1,.86-2.94c-4.67-.93-10.52-2-17.15-3C45.44,39.32,38.69,38.54,34,38.13c-6.93-.72-8.53-.5-8.53-.5h0q-.39,0-.75.09h0a3.48,3.48,0,0,0-3,2.52c-.07.28-.12.58-.17.91-.36,3.09-.76,6.59-1.11,9.71l-1.08,9.18a4.09,4.09,0,0,0-.05.45,2.64,2.64,0,0,0,.9,2.1c1.78,1.8,9,2.34,9,2.34Z"/><path class="cls-4" d="M114.71,64.94c-1.52.16-3.32.29-5.38.32-.55,0-30.36-2.3-36.68-18.59a16.5,16.5,0,0,0-.85-2.94c4.66-.93,10.52-2,17.14-3,9.54-1.45,16.28-2.23,20.94-2.63,6.93-.73,8.53-.51,8.53-.51h0a5.5,5.5,0,0,1,.75.09h0a3.47,3.47,0,0,1,3,2.52c.07.28.12.58.17.91.36,3.09.76,6.59,1.12,9.71l1.07,9.18a2.56,2.56,0,0,1,0,.45,2.6,2.6,0,0,1-.9,2.1c-1.78,1.8-9,2.34-9,2.34Z"/><path class="cls-4" d="M96.68,67.09c-9-2.79-19.94-8.29-23.49-18.93a20.34,20.34,0,0,0-.69-2.92c-.1.31-.19.63-.27.95L72,45.24a21.79,21.79,0,0,0-.7,2.92C67.72,58.8,56.79,64.3,47.77,67.09A243.29,243.29,0,0,1,29.06,101c5-.59,14.56-2.89,14.56-2.89s1.69,3.36,6.3,14.77c4.54-6.75,14.72-28.63,22.31-45.5,7.58,16.87,17.77,38.75,22.3,45.5,4.62-11.41,6.3-14.77,6.3-14.77s9.59,2.3,14.57,2.89A242,242,0,0,1,96.68,67.09Z"/></g></g></g></svg>