<svg xmlns="http://www.w3.org/2000/svg" viewBox="0 0 113.08 134.13"><defs><style>.cls-1{fill:#37b34a;}.cls-2{fill:#2a933c;}.cls-3{fill:#fff;}.cls-4{fill:#c13534;}.cls-5{fill:#e9e9ea;}</style></defs><g id="Layer_2" data-name="Layer 2"><g id="Layer_1-2" data-name="Layer 1"><g id="Geschenk_4" data-name="Geschenk 4"><polygon class="cls-1" points="113.08 56.45 112.92 24.82 0 25.4 0.16 56.45 113.08 56.45"/><polygon class="cls-2" points="3.8 55.51 4.15 134.13 108.49 133.53 108.14 55.51 3.8 55.51"/><rect class="cls-3" x="46.7" y="24.27" width="19.19" height="109.68"/><path class="cls-3" d="M24.12,16.19h0a3.54,3.54,0,0,1,.5-.07h0a28.38,28.38,0,0,1,5.72.39c3.12.32,7.65.93,14,2.06,4.44.75,8.37,1.59,11.5,2.31,0,0-6.46-13.76-20.7-19.3l-2-.7h0c-.55-.18-1-.35-1.51-.52L31.34.23c-4.54-1.38-4.68,3.5-7.5,15a6,6,0,0,0-.15,1.1,2.7,2.7,0,0,1,.43-.13Z"/><path class="cls-4" d="M55.9,20.91v0S55.89,20.93,55.9,20.91Z"/><path class="cls-3" d="M27.33,37.44a34.86,34.86,0,0,0,3.61.25c.37,0,20.36-1.8,24.6-14.52a14.59,14.59,0,0,1,.57-2.3c-3.12-.72-7-1.55-11.5-2.3-6.39-1.13-10.91-1.74-14-2.07a28.37,28.37,0,0,0-5.72-.39h0l-.5.07h0a2.53,2.53,0,0,0-2,2c-.05.22-.08.45-.12.71-.24,2.41-.5,5.14-.74,7.58l-.73,7.17c0,.1,0,.21,0,.35a2.27,2.27,0,0,0,.6,1.64c1.2,1.41,6,1.83,6,1.83Z"/><path class="cls-3" d="M87.89,16.19h0l-.5-.07h0a28.38,28.38,0,0,0-5.72.39c-3.13.32-7.65.93-14,2.06-4.44.75-8.37,1.59-11.5,2.31,0,0,6.46-13.76,20.69-19.3l2-.7h0c.55-.18,1-.35,1.51-.52l.37-.13c4.54-1.38,4.68,3.5,7.5,15a6,6,0,0,1,.15,1.1,3.06,3.06,0,0,0-.43-.13Z"/><path class="cls-4" d="M56.11,20.91a0,0,0,0,1,0,0S56.12,20.93,56.11,20.91Z"/><path class="cls-3" d="M84.68,37.44a35.07,35.07,0,0,1-3.62.25c-.36,0-20.35-1.8-24.59-14.52a14.59,14.59,0,0,0-.57-2.3c3.12-.72,7.05-1.55,11.5-2.3,6.39-1.14,10.91-1.74,14-2.06a28.16,28.16,0,0,1,5.72-.4h0l.5.07h0a2.53,2.53,0,0,1,2,2,6.64,6.64,0,0,1,.11.71c.24,2.41.51,5.14.75,7.58l.72,7.17a2.84,2.84,0,0,1,0,.35,2.24,2.24,0,0,1-.61,1.64c-1.19,1.41-6,1.83-6,1.83Z"/><path class="cls-5" d="M27.33,34.42c1,.11,2.23.19,3.61.22.37,0,20.36-1.55,24.6-12.47a10.88,10.88,0,0,1,.57-2c-3.12-.63-7-1.34-11.5-2-6.39-1-10.91-1.5-14-1.77a32.22,32.22,0,0,0-5.72-.34h0a4,4,0,0,0-.5.06h0a2.35,2.35,0,0,0-2,1.7c-.05.18-.08.38-.12.6-.24,2.08-.5,4.42-.74,6.51l-.73,6.16q0,.12,0,.3a1.8,1.8,0,0,0,.6,1.41c1.2,1.21,6,1.57,6,1.57Z"/><path class="cls-5" d="M84.68,34.42c-1,.11-2.23.19-3.62.22-.36,0-20.35-1.55-24.59-12.47a10.88,10.88,0,0,0-.57-2c3.12-.63,7.05-1.34,11.5-2,6.39-1,10.91-1.5,14-1.77a32.22,32.22,0,0,1,5.72-.34h0a4,4,0,0,1,.5.06h0a2.35,2.35,0,0,1,2,1.7,4.61,4.61,0,0,1,.11.6L90.53,25l.72,6.16a2,2,0,0,1,0,.3,1.78,1.78,0,0,1-.61,1.41c-1.19,1.21-6,1.57-6,1.57Z"/><path class="cls-5" d="M72.59,35.86c-6-1.87-13.38-5.56-15.76-12.69a13,13,0,0,0-.46-2c-.07.21-.13.42-.18.64L56,21.21a14.35,14.35,0,0,0-.47,2C53.16,30.3,45.83,34,39.79,35.86A163.38,163.38,0,0,1,27.24,58.6c3.33-.4,9.76-1.94,9.76-1.94s1.14,2.25,4.23,9.9c3-4.52,9.87-19.2,15-30.51,5.08,11.31,11.91,26,15,30.51,3.1-7.65,4.23-9.9,4.23-9.9s6.43,1.54,9.76,1.94A164.67,164.67,0,0,1,72.59,35.86Z"/></g></g></g></svg>