<svg xmlns="http://www.w3.org/2000/svg" viewBox="0 0 472.54 721.03"><defs><style>.cls-1{fill:#935a2e;}.cls-2{fill:#2a933c;}.cls-3{fill:#37b34a;}.cls-4{fill:#fff;}.cls-5{fill:#ebc12d;}</style></defs><g id="Layer_2" data-name="Layer 2"><g id="Layer_1-2" data-name="Layer 1"><g id="Weihnachtsbaum"><rect class="cls-1" x="208.78" y="631.99" width="62.66" height="89.04"/><path class="cls-2" d="M235.86,649.55C100.43,648.79,0,598.18,0,598.18,134.92,528,217,277.29,235.86,224.12v-10s-.59,1.78.41,5.06c1-3.28.41-5.06.41-5.06v10C253.09,277.29,337.62,528,472.54,598.18c0,0-102.9,50.61-235.86,51.37v0c-.82,0,.1,0-.41,0s-.41,0-.41,0Z"/><path class="cls-3" d="M235.86,532.92c-118.19-.65-202.17-44-202.17-44,115.65-60.13,187.39-275,202.17-320.62v-8.54a8.25,8.25,0,0,0,.41,4.34,8.39,8.39,0,0,0,.41-4.34v8.54c13.13,45.57,86.52,260.49,202.16,320.62,0,0-85.61,43.38-202.16,44v0c-.82,0,0,0-.41,0a1.85,1.85,0,0,0-.41,0Z"/><path class="cls-2" d="M235.86,435c-95.21-.53-165.1-36-165.1-36,94.44-49.11,152.79-224.62,165.1-261.84v-7a7.57,7.57,0,0,0,.41,3.55,7.57,7.57,0,0,0,.41-3.55v7c10.67,37.22,70.66,212.73,165.1,261.84,0,0-71.53,35.43-165.1,36v0c-.82,0-.06,0-.41,0h-.41Z"/><path class="cls-3" d="M235.86,335.43C153.78,335,96,304.79,96,304.79,176,263.2,225.19,114.86,235.86,82.85h.82c9,32,59.84,180.35,139.83,221.94,0,0-61.86,30.19-139.83,30.64v0c-.82,0-.11,0-.41,0h-.41Z"/><path class="cls-4" d="M278.54,574.83c-4.11,0-4.11,5.32,0,5.32C281.82,580.15,281.82,574.83,278.54,574.83Z"/><path class="cls-4" d="M225.19,567a1.79,1.79,0,1,0,0,3.58A1.79,1.79,0,1,0,225.19,567Z"/><path class="cls-4" d="M279.36,559.9c-1.64,0-1.64,3.25,0,3.25A1.64,1.64,0,1,0,279.36,559.9Z"/><path class="cls-4" d="M159.53,508.74c-2.47,0-2.47,4,0,4S162,508.74,159.53,508.74Z"/><path class="cls-4" d="M171,553.89c-2.47,0-2.47,4,0,4S173.48,553.89,171,553.89Z"/><path class="cls-4" d="M182.51,495.66c-4.11,0-4.11,6.91,0,6.91A3.46,3.46,0,1,0,182.51,495.66Z"/><path class="cls-4" d="M166.09,449.4c-1.64,0-1.64,3.65,0,3.65A1.83,1.83,0,1,0,166.09,449.4Z"/><path class="cls-4" d="M395.91,587.29c-1.64,0-1.64,3.65,0,3.65A1.83,1.83,0,1,0,395.91,587.29Z"/><path class="cls-4" d="M198.1,350.9c-1.64,0-1.64,3.65,0,3.65A1.83,1.83,0,1,0,198.1,350.9Z"/><path class="cls-4" d="M233.4,440.43c-4.11,0-4.11,7.07,0,7.07S237.5,440.43,233.4,440.43Z"/><path class="cls-4" d="M56.93,580c-4.1,0-4.1,7.06,0,7.06S61,580,56.93,580Z"/><path class="cls-4" d="M86.89,476.79A2.94,2.94,0,0,0,84,473.85a4.31,4.31,0,0,0-3.91,2.8,6.17,6.17,0,0,0-.06,3.73,2.63,2.63,0,0,0,5,0c.06-.24.13-.48.17-.73l0-.23A3,3,0,0,0,86.89,476.79Z"/><path class="cls-4" d="M306,503.88a1.42,1.42,0,0,1-.05-.22l0-.06v-.13a2.82,2.82,0,1,0-5.64,0,6,6,0,0,0,.47,3.65,4.22,4.22,0,0,0,3.8,2.19,3,3,0,0,0,2.94-2.94A2.78,2.78,0,0,0,306,503.88Z"/><path class="cls-4" d="M347.48,432.17a3,3,0,1,0,0,6A3,3,0,1,0,347.48,432.17Z"/><path class="cls-4" d="M129.16,618.49a3,3,0,1,0,0,6A3,3,0,1,0,129.16,618.49Z"/><path class="cls-4" d="M380.31,495.62a3.5,3.5,0,1,0,0,7C384.42,502.61,384.42,495.62,380.31,495.62Z"/><path class="cls-4" d="M359.79,552.26a3.5,3.5,0,1,0,0,7C363.9,559.24,363.9,552.26,359.79,552.26Z"/><path class="cls-4" d="M263.26,406.89a3.35,3.35,0,0,0-3.48-.71l-.22,0a3,3,0,0,0-3,3c-.12,1.72.41,3.51,2.3,4s3.11-.69,4.37-1.78A3.18,3.18,0,0,0,263.26,406.89Z"/><path class="cls-4" d="M249.81,358.7c-3.28,0-3.28,5.08,0,5.08S253.09,358.7,249.81,358.7Z"/><path class="cls-4" d="M295,339.36a3,3,0,1,0,0,6C298.24,345.39,298.24,339.36,295,339.36Z"/><path class="cls-4" d="M254.74,330.77c-3.29,0-3.29,5.79,0,5.79A2.9,2.9,0,1,0,254.74,330.77Z"/><path class="cls-4" d="M146.39,342.58c-3.28,0-3.28,5.39,0,5.39S149.68,342.58,146.39,342.58Z"/><path class="cls-4" d="M362.26,396.73c-4.93,0-4.93,7.3,0,7.3S367.18,396.73,362.26,396.73Z"/><path class="cls-4" d="M147.21,394.35c-3.28,0-3.28,6.35,0,6.35C152.14,400.7,152.14,394.35,147.21,394.35Z"/><path class="cls-4" d="M222.73,267.19c-4.11,0-4.11,5.23,0,5.23C226,272.42,226,267.19,222.73,267.19Z"/><path class="cls-4" d="M178.4,232.31c-3.28,0-3.28,5.32,0,5.32S181.69,232.31,178.4,232.31Z"/><path class="cls-4" d="M274.43,251.64c-4.92,0-4.92,7.3,0,7.3C278.54,258.94,278.54,251.64,274.43,251.64Z"/><path class="cls-4" d="M245.71,163.82c-4.93,0-4.93,7.3,0,7.3C249.81,171.12,249.81,163.82,245.71,163.82Z"/><path class="cls-4" d="M241,305.24a5.56,5.56,0,0,0-2.36.89,3.05,3.05,0,0,0-1.29,1.68,2.82,2.82,0,0,0,2.71,3.57,3,3,0,0,0,2.44-1.4,5.66,5.66,0,0,0,.89-2.35A2,2,0,0,0,241,305.24Z"/><path class="cls-4" d="M308.91,271.7a2.46,2.46,0,1,0,0,4.92A2.46,2.46,0,0,0,308.91,271.7Z"/><path class="cls-4" d="M272.79,206.86a2.46,2.46,0,0,0,0,4.92A2.46,2.46,0,1,0,272.79,206.86Z"/><path class="cls-4" d="M166.09,310c-1.64,0-1.64,3.73,0,3.73A1.87,1.87,0,0,0,166.09,310Z"/><path class="cls-4" d="M163.2,273.76l-1.38.27a.92.92,0,0,0,0,1.76l1.38.27A1.18,1.18,0,1,0,163.2,273.76Z"/><path class="cls-4" d="M218.19,184.3l-1.38.27a.92.92,0,0,0,0,1.76l1.38.26A1.18,1.18,0,1,0,218.19,184.3Z"/><g id="Logo"><g id="Ebene_1-2" data-name="Ebene 1-2"><path class="cls-5" d="M267.09,88.18a1.1,1.1,0,0,1-1-.72c-.15-.41-3.64-10-4.18-11.62-2.49-7.48-4.8-14.21-7-20.49a32.44,32.44,0,0,1-4.35,6.49c-2.6,2.9-5.21,4-7.75,3.4-2.88-.73-5.09-3.71-6.67-7l-.23-.34c-.55-.83-1.07-1.61-1.6-2.36-1.23-1.72-2.58-3.42-4-5.07-.3.48-.59,1-.88,1.47,2.73,4.3,5.55,8.55,8.34,12.74l2.77,4.18A39.48,39.48,0,0,0,243,72.24,34,34,0,0,1,246.45,77a44.86,44.86,0,0,1,2.19,4.69,1.09,1.09,0,0,1-.86,1.29,1.06,1.06,0,0,1-.68-.08,39.52,39.52,0,0,0-6.31-2.34C235,79,209.47,70.12,202.28,67.15c-.66-.27-1.54-.56-2.44-.87-3.08-1-6.94-2.31-8.45-4.71a1.08,1.08,0,0,1,.11-1.32c.77-.86,3.94-2.53,11-6.15,4.78-2.45,10.19-5.24,12.71-6.89,2.07-1.35,4.13-2.76,6.16-4.18-1-1.68-1.88-3.36-2.78-5.06-4.37-4.64-8.94-10.1-10.1-16-.26-1.31-.39-2.75.62-3.47a1.7,1.7,0,0,1,.83-.32c-.26-.65-.51-1.3-.75-2l-.1-.26c-.85-2.23-2.42-6.93-2.48-7.12a1.1,1.1,0,0,1,2.08-.7s1.61,4.85,2.45,7l.1.25c.47,1.23.93,2.43,1.4,3.63a39.19,39.19,0,0,0,9.28,4.19c2.48.69,5.07,1.36,7.56,2l.5.13q.43-.86.9-1.68a1.09,1.09,0,0,1,1.5-.4,1.11,1.11,0,0,1,.49.58,8.36,8.36,0,0,1,.41,2.37c2.66.7,5.32,1.43,8,2.23l3.23-2.36A143.32,143.32,0,0,0,239,12.38,64.25,64.25,0,0,0,233.2,1.76a1.1,1.1,0,0,1,.23-1.54,1.09,1.09,0,0,1,1.38.06c4.66,4.16,10.42,5.48,16.51,6.88l.45.1A130,130,0,0,0,265,9.67c2,.25,4.14.71,5,2.31.69,1.27.48,2.91-.68,5.32-.86,1.85-1.88,3.63-2.89,5.34-1.09,1.89-2.21,3.84-3.13,5.83a81.48,81.48,0,0,0-3.1,8.38l1.24.81c6.82,4.54,7.14,6.68,7.24,7.39a2.55,2.55,0,0,1-.82,2.31c-1.84,1.68-4.14.52-5.82-.31a5.6,5.6,0,0,0-2.2-.8c-.53.1-1.28,1.75-1.62,2.46-.16.36-.32.7-.47,1-.54,1-1.07,2-1.58,3,2.45,6.84,5,14.19,7.73,22.45.53,1.6,4.11,11.46,4.16,11.56a1.1,1.1,0,0,1-.65,1.41h0A1.16,1.16,0,0,1,267.09,88.18Zm-73.17-27c1.51,1.34,4.41,2.31,6.62,3,1,.32,1.85.62,2.59.92,7.14,2.94,32.52,11.76,38.23,13.29a38.05,38.05,0,0,1,4,1.34c-.32-.65-.64-1.28-.87-1.71a31.2,31.2,0,0,0-3.21-4.41c-.91-1.13-1.86-2.29-2.67-3.52l-2.77-4.18c-2.57-3.87-5.19-7.81-7.73-11.79l-.61,1.12c-.5.9-1,1.84-1.53,2.72-.16.29-.38.74-.6,1.22-1,2.13-2.36,5-4.68,5.06h0a1.09,1.09,0,0,1-1.07-.88c-.48-2.37.32-4.9,1-7.14.16-.52.31-1,.45-1.47.56-2,1.08-4,1.59-5.93.21-.81.42-1.62.64-2.44l-.87-1.47q-3,2.1-6.07,4.11c-2.62,1.72-7.85,4.41-12.91,7C200,57.87,195.71,60.05,193.92,61.16Zm48.59,1.66a3.79,3.79,0,0,0,.77.29c1.69.43,3.56-.49,5.58-2.73a36.9,36.9,0,0,0,5-7.85c-.41-1.14-.82-2.26-1.23-3.38-2.08.52-4.36-.25-7-2.33-.36-.28-.71-.56-1.05-.81C242.87,51.69,241.69,57.53,242.51,62.82ZM224.93,49c0,.13-.06.26-.09.37-.52,2-1,4-1.61,6-.14.5-.3,1-.47,1.54a20.28,20.28,0,0,0-1,4.43,17.47,17.47,0,0,0,1.7-3.06c.26-.54.48-1,.69-1.38.5-.87,1-1.76,1.5-2.69.39-.72.8-1.44,1.2-2.17C226.17,51,225.55,50,224.93,49Zm13,8.14c.68,1,1.37,2.06,2.11,3-.18-5.06,1-10.36,2.6-15.48-3.15-2-5.52-2.1-8.31.51.21,1.24.46,2.47.75,3.71A42.15,42.15,0,0,0,238,57.16Zm-6.44-8.56c.6.71,1.2,1.42,1.79,2.14-.13-.51-.25-1-.33-1.3-.17-.72-.33-1.44-.47-2.16-.35.42-.68.86-1,1.32Zm-5.8-2.53q1.16,1.92,2.34,3.82l.69-1.12c-1-1.09-1.94-2.16-2.9-3.19,0,.16-.09.33-.14.49Zm28.9,2.12.61,1.68c.22-.41.44-.83.67-1.24.11-.21.25-.52.4-.84.66-1.43,1.56-3.39,3.21-3.7a6,6,0,0,1,3.57,1c1.6.8,2.69,1.29,3.36.66a.35.35,0,0,0,.14-.37c-.07-.44-.72-2.17-6.29-5.88l-.76-.49c-.39,1.19-.8,2.38-1.25,3.56a12.3,12.3,0,0,1-3.67,5.63Zm-9.37-4.41c.58.42,1.16.86,1.73,1.32,1.91,1.52,3.55,2.18,4.88,2q-.9-2.45-1.79-4.83c-.78-2-1.5-4.1-2.2-6.15-.24.7-.49,1.41-.74,2.15C246.5,40,245.86,41.9,245.25,43.78Zm-18.72-.68c1.14,1.21,2.32,2.48,3.49,3.8a26.87,26.87,0,0,1,2-2.41v0c-.3-2-.51-4-.65-5.91l-4.43,3.23-.23.77c-.05.19-.1.36-.16.54Zm22.82-9.46c.88,2.61,1.8,5.24,2.77,7.83Q253,43.71,253.8,46a11.9,11.9,0,0,0,2.43-4.21c.5-1.31,1-2.65,1.4-4-2.29-1.39-4.11-2.34-4.37-2.47C252,34.74,250.67,34.17,249.35,33.64ZM233.45,37c.11,1.87.28,3.76.52,5.65,3.34-2.48,6.4-1.88,9.38-.14.56-1.7,1.13-3.38,1.7-5,.48-1.39.94-2.71,1.36-4,.1-.28.19-.57.29-.85v0c-1.65-.6-3.34-1.16-5-1.69l-4.6,3.41L233.45,37Zm-13-.32c.73.77,1.46,1.54,2.17,2.26l1.37,1.42.48.52.59-.43c.21-.75.42-1.54.64-2.34a86.9,86.9,0,0,1,3.41-10.68l-.12,0c-2.51-.65-5.11-1.32-7.61-2a35,35,0,0,1-7.43-3.09,145.61,145.61,0,0,0,6.34,14.08,2.29,2.29,0,0,0,.16.31Zm10.71-8.46a81.07,81.07,0,0,0-3.26,10.17c1.12-.82,2.23-1.63,3.33-2.45-.07-1.27-.12-2.52-.17-3.75,0-.83,0-1.74.05-2.7,0-.41,0-.84.05-1.27Zm18.41,3.11q2.37.94,4.67,2c.41.2,2.09,1.09,4.14,2.31a76.81,76.81,0,0,1,3-8.11c1-2.09,2.11-4.09,3.22-6,1-1.68,2-3.42,2.83-5.18,1-2,.93-2.93.72-3.31-.3-.57-1.4-1-3.35-1.2a131.72,131.72,0,0,1-13.5-2.45l-.44-.1c-4.58-1.05-9-2.06-13-4.22,1.12,2.05,2.19,4.28,3.17,6.37q3,6.54,5.3,13.35c3.7-2.67,7.46-5.28,11.27-7.73.29-.2.59-.39.9-.58a1.1,1.1,0,0,1,1.16,1.86l-.94.61C254.62,21.72,251.83,25.47,249.52,31.34Zm-16.23-2.81c0,.36,0,.71,0,1.06,0,.92-.07,1.78,0,2.52s.06,1.51.09,2.27l2.45-1.81L239,30.13c-1.89-.56-3.81-1.09-5.73-1.6Zm-22.78-8.08a5.71,5.71,0,0,0,.14,1.09,22.38,22.38,0,0,0,4.13,8.55c-1.39-3.13-2.65-6.28-3.9-9.48Zm33.33,8.86q1,.32,1.95.66l-.57-1.67ZM247.08,27l.85,2.47a34.28,34.28,0,0,1,2.46-4.83Z"/><path class="cls-5" d="M219.73,91.41a1.1,1.1,0,0,1-.78-1.89c.06-.06,6-5.74,8.87-8.38,4.33-4,8.33-7.55,12.13-10.9-3.67-2.76-7.33-5.72-10.81-8.92a164.75,164.75,0,0,1-15.25-16.78c-2-2.4-4-4.89-6.16-7.31-.35-.4-.7-.8-1-1.22A22.57,22.57,0,0,1,198,31.49c-.09-.08-8.77-8-7.69-12.19a1.1,1.1,0,0,1,1.34-.79,1,1,0,0,1,.24.09c5.6,3,10.61,9,15,14.22l1,1.22c5.79,1.46,12.29,1.05,18.26.68l2-.12c12.42-.72,24.18-.06,38,1.15a57.68,57.68,0,0,0,10.18-.09c.32,0,.67-.07,1.05-.13,1.43-.19,3.05-.42,4.39.31a1.1,1.1,0,0,1,.43,1.49l-.06.1a25.77,25.77,0,0,1-6.2,5.78c-.63.47-1.27.94-1.88,1.42-7.83,6.18-15.31,12.42-21.6,17.71-2.94,2.47-5.93,5-9.05,7.76,2.36,1.72,4.7,3.37,7,5,.6.42,1.2.82,1.78,1.21,3.42,2.31,6.37,4.29,8.62,8.32a1.1,1.1,0,0,1-.48,1.48,1.09,1.09,0,0,1-1.44-.41c-2-3.57-4.61-5.33-7.93-7.56l-1.79-1.23q-3.67-2.55-7.45-5.3c-3.9,3.43-8,7.12-12.46,11.19-2.86,2.61-8.76,8.28-8.82,8.33A1.1,1.1,0,0,1,219.73,91.41Zm-9.48-54.65c1.83,2.13,3.61,4.29,5.35,6.38,4.88,5.89,9.47,11.45,15,16.56,3.54,3.25,7.27,6.25,11,9.06,3.26-2.85,6.38-5.53,9.44-8.11,6.3-5.29,13.8-11.55,21.66-17.74.63-.5,1.29-1,1.93-1.46a32.26,32.26,0,0,0,4.62-3.91c-.52,0-1.05.1-1.57.17s-.78.11-1.16.14a60.07,60.07,0,0,1-10.56.09c-13.74-1.21-25.41-1.86-37.7-1.15l-2,.12C221.11,37.24,215.53,37.58,210.25,36.76Zm-17.37-15a31.47,31.47,0,0,0,6.51,8,19.21,19.21,0,0,0,4.46,2.82C200.46,28.66,196.78,24.51,192.88,21.8Z"/></g></g></g></g></g></svg>